<svg width="554pt" height="198pt" viewBox="0 0 554 198" xmlns="http://www.w3.org/2000/svg">
  <g fill="#9333ea">
    <path d=" M 450.31 0.00 L 484.19 0.00 C 484.22 4.27 484.21 8.54 484.22 12.82 C 480.54 12.81 476.87 12.81 473.21 12.82 C 473.24 15.94 473.24 19.06 473.18 22.18 C 488.78 23.43 503.97 28.90 516.79 37.88 C 520.08 33.87 523.39 29.88 526.79 25.96 C 529.51 28.51 532.38 30.90 535.33 33.18 C 531.95 37.04 528.74 41.06 525.37 44.93 C 548.34 65.24 558.64 98.25 552.00 128.10 C 548.11 146.52 537.89 163.34 523.85 175.80 C 523.58 175.32 523.06 174.37 522.80 173.89 C 530.03 166.06 531.57 153.72 526.39 144.38 C 537.01 126.60 538.68 103.92 531.20 84.65 C 525.69 70.29 515.25 57.89 502.05 50.00 C 487.95 41.50 470.74 38.26 454.54 41.23 C 439.11 43.84 424.82 52.07 414.49 63.77 C 406.96 63.79 399.43 63.82 391.91 63.75 C 396.59 56.52 402.06 49.78 408.52 44.07 C 405.33 40.51 402.32 36.81 399.26 33.14 C 402.21 30.84 405.04 28.39 407.92 26.01 C 410.97 29.80 414.16 33.48 417.22 37.26 C 430.18 28.31 445.60 23.10 461.30 22.08 C 461.29 18.99 461.29 15.91 461.31 12.82 C 457.61 12.82 453.92 12.83 450.24 12.78 C 450.31 8.52 450.28 4.26 450.31 0.00 Z" />
    <path d=" M 467.20 51.83 C 485.00 51.61 502.51 60.69 512.75 75.22 C 519.62 84.63 523.08 96.24 523.34 107.83 C 504.63 107.81 485.93 107.91 467.22 107.79 C 467.32 89.13 467.38 70.48 467.20 51.83 Z" />
    <path d=" M 16.26 140.84 C 95.69 140.85 175.12 140.96 254.55 140.78 C 254.85 145.03 254.55 149.28 254.77 153.53 C 176.28 153.61 97.80 153.52 19.31 153.57 C 18.25 149.34 17.35 145.07 16.26 140.84 Z" />
    <path d=" M 21.57 163.14 C 99.29 163.22 177.02 163.08 254.75 163.21 C 254.64 167.39 254.64 171.58 254.75 175.76 C 193.83 175.88 132.91 175.78 72.00 175.81 C 56.15 175.73 40.30 175.98 24.46 175.69 C 23.56 171.49 22.53 167.32 21.57 163.14 Z" />
    <path d=" M 26.71 185.48 C 102.73 185.42 178.75 185.41 254.77 185.48 C 254.64 189.65 254.67 193.83 254.69 198.00 L 29.84 198.00 C 28.76 193.84 27.93 189.61 26.71 185.48 Z" />
  </g>
  <g fill="#4f46e5">
    <path d=" M 109.42 72.61 C 119.97 70.21 132.34 72.98 139.08 81.92 C 147.75 93.58 147.25 111.54 137.33 122.33 C 126.25 134.13 104.94 133.90 94.37 121.53 C 85.24 110.81 85.47 93.79 93.72 82.63 C 97.50 77.51 103.26 74.04 109.42 72.61 M 112.31 87.45 C 108.03 89.51 106.24 94.53 106.04 98.99 C 105.72 103.75 106.02 109.03 109.15 112.89 C 112.15 116.77 118.40 117.45 122.13 114.26 C 125.72 111.34 126.84 106.44 126.89 102.01 C 126.91 97.47 126.12 92.51 122.92 89.06 C 120.28 86.18 115.72 85.82 112.31 87.45 Z" />
    <path d=" M 283.45 72.68 C 293.55 70.32 305.33 72.59 312.36 80.65 C 322.16 92.26 321.92 111.42 311.45 122.55 C 300.43 134.00 279.73 133.81 269.06 121.98 C 259.50 111.17 259.70 93.63 268.27 82.30 C 272.01 77.45 277.52 74.11 283.45 72.68 M 287.20 87.22 C 282.54 89.04 280.59 94.33 280.31 98.96 C 279.97 104.08 280.41 109.97 284.32 113.75 C 287.62 117.08 293.51 117.11 296.91 113.90 C 300.41 110.66 301.25 105.57 301.20 101.02 C 301.04 96.75 300.24 92.06 297.07 88.92 C 294.58 86.31 290.44 85.88 287.20 87.22 Z" />
    <path d=" M 0.00 72.75 C 6.34 72.74 12.69 72.72 19.03 72.75 C 20.99 86.37 22.89 100.01 24.78 113.64 C 25.13 110.26 25.56 106.88 26.47 103.60 C 29.28 93.32 31.80 82.95 34.71 72.70 C 40.95 72.77 47.18 72.74 53.42 72.73 C 56.27 86.33 59.51 99.85 61.96 113.53 C 62.78 99.83 65.60 86.35 67.39 72.76 C 73.08 72.71 78.77 72.76 84.46 72.73 C 79.45 91.75 74.84 110.89 69.96 129.96 C 63.85 130.18 57.73 129.89 51.62 129.91 C 48.87 116.76 44.42 103.94 42.99 90.56 C 40.41 103.86 36.40 116.82 33.10 129.95 C 26.67 129.65 19.94 130.64 13.70 129.55 C 8.97 110.73 4.91 91.73 0.00 72.95 L 0.00 72.75 Z" />
    <path d=" M 153.14 72.76 C 161.72 72.73 170.30 72.71 178.88 72.77 C 184.10 73.06 189.68 73.71 194.05 76.86 C 201.50 82.19 201.20 94.68 194.18 100.26 C 191.93 102.26 189.02 103.23 186.17 104.02 C 189.66 105.51 192.98 107.77 194.69 111.29 C 197.73 117.34 199.65 123.89 202.32 130.10 C 195.77 129.76 189.20 130.22 182.65 129.82 C 181.13 125.23 179.66 120.61 177.94 116.09 C 176.71 112.83 174.12 109.94 170.52 109.43 C 170.25 116.30 170.51 123.19 170.40 130.06 C 164.64 129.76 158.88 130.18 153.13 129.87 C 153.27 110.84 153.26 91.80 153.14 72.76 M 170.34 97.72 C 173.02 97.72 175.96 97.94 178.29 96.32 C 181.72 94.18 182.19 88.64 179.09 86.01 C 176.58 84.17 173.30 84.71 170.40 84.58 C 170.39 88.96 170.46 93.34 170.34 97.72 Z" />
    <path d=" M 208.77 72.75 C 214.54 72.74 220.31 72.73 226.08 72.75 C 225.98 81.81 226.33 90.89 225.80 99.95 C 230.59 91.06 234.71 81.79 239.29 72.78 C 246.14 72.68 252.99 72.78 259.85 72.72 C 254.25 81.73 249.05 90.98 243.49 100.01 C 249.58 109.98 255.39 120.11 261.44 130.11 C 254.43 129.72 247.40 130.20 240.38 129.89 C 235.44 120.61 230.71 111.19 225.77 101.93 C 226.37 111.25 225.95 120.59 226.08 129.92 C 220.31 129.88 214.54 130.11 208.77 129.94 C 208.80 110.88 208.80 91.81 208.77 72.75 Z" />
    <path d=" M 326.77 72.75 C 332.59 72.73 338.41 72.74 344.22 72.75 C 344.19 83.51 344.21 94.27 344.21 105.03 C 344.19 108.00 344.53 111.19 346.44 113.59 C 349.00 117.20 355.09 117.17 357.74 113.67 C 359.67 111.24 359.90 107.98 359.88 105.00 C 359.86 94.25 359.88 83.49 359.86 72.74 C 365.66 72.74 371.46 72.73 377.26 72.74 C 377.17 84.14 377.33 95.54 377.18 106.94 C 376.88 114.88 374.03 123.69 366.62 127.70 C 359.03 131.66 349.76 131.76 341.63 129.55 C 332.66 127.04 327.49 117.87 327.08 108.99 C 326.42 96.93 326.99 84.83 326.77 72.75 Z" />
    <path d=" M 383.44 86.29 C 383.41 81.77 383.48 77.26 383.39 72.75 C 399.91 72.74 416.43 72.71 432.96 72.76 C 432.82 77.25 432.82 81.75 432.96 86.24 C 427.53 86.29 422.11 86.24 416.69 86.27 C 416.77 100.80 416.60 115.34 416.78 129.88 C 410.98 130.06 405.17 130.01 399.38 129.89 C 399.60 115.39 399.25 100.89 399.56 86.40 C 394.19 86.10 388.81 86.31 383.44 86.29 Z" />
    <path d=" M 262.90 140.85 C 279.37 140.84 295.85 140.84 312.32 140.85 C 312.32 145.36 312.31 149.86 312.35 154.37 C 306.93 154.41 301.52 154.33 296.11 154.43 C 296.34 168.95 296.14 183.48 296.22 198.00 L 278.85 198.00 C 278.90 183.48 278.72 168.95 278.94 154.43 C 273.59 154.34 268.24 154.41 262.89 154.37 C 262.90 149.86 262.89 145.36 262.90 140.85 Z" />
    <path d=" M 319.19 140.85 C 324.93 140.84 330.67 140.84 336.42 140.85 C 336.41 159.90 336.40 178.95 336.43 198.00 L 319.22 198.00 C 319.19 178.95 319.25 159.90 319.19 140.85 Z" />
    <path d=" M 347.61 140.85 C 356.16 140.80 364.71 140.92 373.26 140.78 C 376.77 153.96 380.38 167.14 382.94 180.53 C 383.44 176.84 383.75 173.12 384.69 169.51 C 387.05 159.94 389.09 150.29 391.65 140.78 C 400.05 140.93 408.46 140.80 416.87 140.85 C 416.82 159.90 416.83 178.95 416.86 198.00 L 399.82 198.00 C 399.98 183.35 399.34 168.67 400.47 154.04 C 400.27 154.32 399.86 154.86 399.66 155.13 C 396.73 169.52 392.94 183.73 389.48 198.00 L 373.41 198.00 C 370.44 187.63 367.97 177.13 365.16 166.71 C 363.96 162.53 363.77 158.14 362.65 153.93 C 361.83 158.61 362.67 163.31 362.68 168.01 C 362.75 178.00 362.67 188.00 362.72 198.00 L 347.62 198.00 C 347.61 178.95 347.63 159.90 347.61 140.85 Z" />
    <path d=" M 427.90 140.85 C 439.80 140.84 451.70 140.83 463.61 140.85 C 463.58 145.36 463.56 149.86 463.64 154.37 C 457.46 154.42 451.28 154.33 445.10 154.43 C 445.17 157.14 445.17 159.85 445.09 162.57 C 450.87 162.67 456.66 162.58 462.45 162.63 C 462.39 167.14 462.41 171.64 462.42 176.15 C 456.65 176.18 450.89 176.11 445.13 176.20 C 445.18 178.95 445.16 181.69 445.07 184.44 C 451.69 184.57 458.32 184.44 464.94 184.53 C 464.79 189.02 464.83 193.51 464.86 198.00 L 427.90 198.00 C 427.90 178.95 427.89 159.90 427.90 140.85 Z" />
    <path d=" M 472.90 140.85 C 481.25 140.86 489.60 140.80 497.95 140.87 C 503.70 141.06 509.89 141.84 514.55 145.54 C 519.38 149.50 520.31 156.70 518.28 162.34 C 516.41 167.59 511.31 171.07 505.98 172.10 C 509.47 173.66 512.78 175.94 514.50 179.46 C 517.51 185.42 519.30 191.91 522.03 198.00 L 502.60 198.00 C 500.61 193.04 499.30 187.83 497.13 182.95 C 495.86 180.11 493.30 177.97 490.18 177.60 C 490.18 184.40 490.18 191.20 490.19 198.00 L 472.90 198.00 C 472.90 178.95 472.89 159.90 472.90 140.85 M 490.10 152.75 C 490.23 157.10 490.20 161.46 490.11 165.81 C 492.87 165.85 495.95 166.13 498.26 164.30 C 501.55 162.06 501.97 156.56 498.76 154.09 C 496.23 152.34 493.00 152.78 490.10 152.75 Z" />
  </g>
</svg>
