<svg width="554pt" height="156pt" viewBox="0 0 554 156" xmlns="http://www.w3.org/2000/svg" fill="#fff">
  <path d=" M 469.85 0.00 L 508.80 0.00 C 508.86 4.30 508.84 8.59 508.84 12.89 C 504.46 12.92 500.09 13.13 495.72 13.09 C 495.71 17.49 495.71 21.88 495.72 26.28 C 506.81 27.43 517.53 31.49 526.66 37.88 C 529.86 34.47 533.35 31.34 536.48 27.86 C 539.59 30.88 542.65 33.94 545.65 37.08 C 542.67 40.27 539.54 43.31 536.45 46.40 C 547.68 58.42 554.26 74.74 554.00 91.24 L 554.00 94.98 C 552.74 119.54 536.34 142.48 513.40 151.40 C 510.92 147.70 508.48 143.99 506.01 140.28 C 526.22 133.46 541.10 113.35 541.11 91.94 C 541.67 74.11 532.08 56.45 516.97 47.02 C 504.43 38.98 488.35 36.89 474.14 41.28 C 462.78 44.70 452.78 52.24 446.19 62.09 C 439.62 72.01 436.49 84.13 437.62 96.00 C 433.26 96.00 428.91 96.02 424.55 95.97 C 423.35 77.96 429.74 59.53 442.18 46.39 C 439.07 43.31 435.96 40.23 432.91 37.09 C 435.91 33.99 438.99 30.97 442.03 27.91 C 445.31 31.25 448.69 34.49 451.93 37.88 C 461.08 31.52 471.79 27.42 482.89 26.29 C 482.91 21.82 482.93 17.35 482.85 12.88 C 478.51 12.96 474.16 13.26 469.84 12.84 C 469.85 8.56 469.84 4.28 469.85 0.00 Z" />
  <path d=" M 489.02 52.03 C 499.03 51.89 509.03 55.85 516.18 62.86 C 525.91 72.01 530.32 86.43 527.27 99.45 C 524.77 111.24 516.39 121.26 505.65 126.55 C 508.80 121.99 508.27 116.22 507.98 110.99 C 507.39 104.55 502.00 99.38 496.02 97.59 C 488.91 95.34 481.38 96.13 474.04 96.00 C 469.87 96.08 465.70 95.85 461.55 96.08 C 461.20 96.43 460.51 97.13 460.16 97.48 C 460.06 103.93 460.18 110.39 460.12 116.85 C 458.71 114.99 457.00 113.26 456.22 111.02 C 455.92 106.50 456.33 101.96 456.07 97.44 C 455.08 95.35 452.57 96.13 450.78 95.98 C 450.58 94.29 450.44 92.60 450.37 90.90 C 463.25 91.20 476.12 90.98 489.00 91.10 C 489.03 78.08 488.99 65.06 489.02 52.03 Z" />
  <path d=" M 17.81 99.01 C 96.87 98.99 175.94 99.01 255.00 99.00 C 255.00 103.33 255.00 107.67 255.00 112.00 C 177.04 112.00 99.07 112.00 21.11 112.00 C 19.99 107.68 18.90 103.34 17.81 99.01 Z" />
  <path d=" M 437.60 114.00 C 439.30 114.00 441.00 114.00 442.71 114.00 C 443.30 114.98 443.89 115.97 444.48 116.97 C 442.18 116.99 439.89 117.00 437.60 117.00 C 437.60 116.25 437.60 114.75 437.60 114.00 Z" />
  <path d=" M 481.62 113.90 C 483.32 114.62 486.00 114.67 486.32 116.98 C 486.26 119.54 483.70 120.62 481.53 120.89 C 481.58 118.56 481.61 116.23 481.62 113.90 Z" />
  <path d=" M 23.36 121.00 C 100.57 121.00 177.79 121.00 255.00 121.00 C 255.00 125.33 255.00 129.67 255.00 134.00 C 178.89 134.01 102.77 133.98 26.66 134.01 C 25.53 129.68 24.43 125.35 23.36 121.00 Z" />
  <path d=" M 454.61 129.49 C 456.29 131.18 458.17 132.64 460.10 134.03 C 460.16 139.07 460.13 144.12 460.12 149.17 C 458.79 148.41 457.46 147.66 456.14 146.88 C 455.83 144.62 457.21 141.35 454.61 140.07 C 452.05 139.82 449.48 140.17 446.92 139.94 C 444.74 138.86 443.33 136.69 441.57 135.06 C 445.92 134.35 451.02 136.34 454.83 133.77 C 454.74 132.34 454.68 130.92 454.61 129.49 Z" />
  <path d=" M 28.92 143.01 C 104.28 142.99 179.64 143.00 255.00 143.00 C 255.00 147.33 255.00 151.67 255.00 156.00 L 32.24 156.00 C 31.03 151.70 30.06 147.33 28.92 143.01 Z" />
  <path d=" M 481.77 141.93 C 485.42 146.11 487.46 151.38 490.49 156.00 L 485.72 156.00 C 484.34 155.88 482.98 155.75 481.62 155.60 C 481.63 151.04 481.47 146.48 481.77 141.93 Z" />
  <path d=" M 108.13 26.27 C 116.80 25.28 126.64 26.61 133.12 33.00 C 138.88 38.71 140.54 47.22 140.60 55.04 C 140.67 62.97 139.14 71.59 133.47 77.52 C 126.37 84.99 114.93 86.07 105.29 84.27 C 96.27 82.92 88.66 75.88 86.49 67.03 C 84.36 57.96 84.30 47.92 88.22 39.31 C 91.72 31.59 99.88 26.95 108.13 26.27 M 110.12 39.23 C 104.61 40.24 101.95 46.01 101.55 51.07 C 101.24 56.48 100.93 62.37 103.77 67.23 C 106.74 72.54 114.42 73.39 119.27 70.28 C 122.93 67.77 123.85 63.01 124.25 58.89 C 124.60 53.90 124.43 48.60 122.16 44.05 C 119.96 39.77 114.60 38.18 110.12 39.23 Z" />
  <path d=" M 279.03 26.29 C 287.48 25.29 296.96 26.51 303.51 32.41 C 309.72 38.08 311.55 46.92 311.60 55.00 C 311.69 63.14 310.05 72.05 304.02 77.98 C 296.61 85.26 285.07 86.10 275.38 84.10 C 266.51 82.44 259.32 75.22 257.33 66.47 C 255.37 57.29 255.33 47.14 259.59 38.57 C 263.23 31.28 271.09 26.97 279.03 26.29 M 281.21 39.21 C 275.65 40.17 272.94 45.99 272.54 51.09 C 272.24 56.50 271.93 62.38 274.77 67.23 C 277.86 72.73 286.03 73.49 290.83 69.87 C 294.02 67.24 294.85 62.87 295.25 58.96 C 295.61 53.91 295.44 48.53 293.09 43.94 C 290.87 39.76 285.62 38.22 281.21 39.21 Z" />
  <path d=" M 0.00 27.18 C 5.03 26.84 10.07 27.05 15.10 27.00 C 18.10 41.51 21.67 55.90 24.22 70.50 C 26.26 55.79 30.26 41.46 33.50 27.00 C 38.27 27.00 43.04 27.00 47.81 27.00 C 50.88 41.47 54.76 55.77 56.91 70.42 C 59.32 55.82 62.96 41.46 66.04 27.00 C 71.00 27.00 75.96 27.00 80.92 27.00 C 76.13 45.98 71.64 65.02 66.83 83.99 C 60.75 84.01 54.67 84.00 48.60 84.00 C 45.91 71.17 42.60 58.46 40.63 45.48 C 38.69 58.45 35.24 71.12 32.62 83.95 C 26.51 84.04 20.40 84.01 14.29 83.97 C 9.55 65.05 5.27 46.01 0.00 27.23 L 0.00 27.18 Z" />
  <path d=" M 151.13 27.01 C 162.20 27.57 173.82 25.33 184.40 29.48 C 193.00 32.84 195.52 44.35 191.05 51.89 C 189.40 55.04 186.42 57.15 183.48 58.99 C 189.04 67.32 194.58 75.66 200.13 84.00 C 194.21 83.89 188.27 84.24 182.37 83.81 C 178.69 76.78 174.40 70.09 170.67 63.09 C 169.31 63.05 167.95 63.01 166.60 62.97 C 166.60 69.97 166.58 76.97 166.62 83.97 C 161.45 84.03 156.29 83.99 151.13 83.99 C 151.14 65.00 151.14 46.00 151.13 27.01 M 166.60 39.00 C 166.60 43.33 166.60 47.67 166.60 52.01 C 168.93 51.96 171.37 52.25 173.60 51.39 C 177.70 50.02 178.94 43.95 176.05 40.91 C 173.51 38.53 169.79 39.01 166.60 39.00 Z" />
  <path d=" M 205.13 27.01 C 210.28 26.99 215.44 27.00 220.59 27.00 C 220.60 35.27 220.60 43.55 220.60 51.82 C 225.84 43.35 231.84 35.38 237.32 27.06 C 242.97 26.93 248.62 27.03 254.27 26.99 C 248.30 35.62 241.98 44.01 236.24 52.79 C 242.35 63.07 247.98 73.63 253.95 83.99 C 248.08 83.95 242.21 84.14 236.35 83.88 C 232.81 76.58 229.00 69.41 225.23 62.22 C 223.66 63.14 222.11 64.08 220.58 65.07 C 220.62 71.37 220.58 77.68 220.61 83.99 C 215.45 84.01 210.29 84.00 205.13 84.00 C 205.13 65.00 205.14 46.00 205.13 27.01 Z" />
  <path d=" M 321.87 27.00 C 327.04 27.00 332.22 27.00 337.40 27.00 C 337.41 38.37 337.38 49.73 337.40 61.09 C 337.45 64.38 337.97 68.16 340.73 70.33 C 344.06 72.71 348.99 72.68 352.28 70.22 C 354.82 67.91 355.22 64.24 355.28 61.00 C 355.26 49.67 355.28 38.34 355.26 27.01 C 360.42 26.99 365.58 26.99 370.74 27.01 C 370.69 39.01 370.80 51.01 370.69 63.00 C 370.58 69.64 367.96 76.52 362.46 80.51 C 356.84 84.49 349.64 85.37 342.93 84.92 C 336.89 84.43 330.56 82.32 326.65 77.45 C 323.05 73.19 321.85 67.44 321.86 62.00 C 321.88 50.33 321.86 38.67 321.87 27.00 Z" />
  <path d=" M 378.00 27.00 C 392.42 27.00 406.84 27.00 421.26 27.00 C 421.27 31.33 421.27 35.66 421.26 40.00 C 416.63 40.01 412.01 39.97 407.38 40.03 C 407.42 54.69 407.39 69.34 407.40 84.00 C 402.22 84.00 397.04 84.00 391.87 84.00 C 391.87 69.33 391.87 54.67 391.87 40.01 C 387.25 39.99 382.62 40.00 378.00 40.00 C 378.00 35.67 378.00 31.33 378.00 27.00 Z" />
  <path d=" M 263.00 99.00 C 277.42 99.00 291.84 98.99 306.26 99.01 C 306.27 103.33 306.27 107.66 306.26 111.99 C 301.64 112.00 297.01 111.99 292.39 112.01 C 292.41 126.68 292.39 141.34 292.40 156.00 L 276.87 156.00 C 276.87 141.33 276.87 126.67 276.87 112.00 C 272.25 112.00 267.62 112.00 263.00 112.00 C 263.00 107.67 263.00 103.33 263.00 99.00 Z" />
  <path d=" M 314.13 99.00 C 319.33 99.00 324.53 98.99 329.74 99.01 C 329.72 118.01 329.73 137.00 329.73 156.00 L 314.13 156.00 C 314.13 137.00 314.14 118.00 314.13 99.00 Z" />
  <path d=" M 342.13 99.01 C 349.02 99.04 355.91 98.89 362.80 99.10 C 366.65 112.75 370.80 126.32 374.76 139.95 C 378.80 126.32 382.65 112.64 386.63 98.99 C 393.51 99.01 400.39 98.99 407.26 99.01 C 407.27 118.00 407.26 137.00 407.27 156.00 L 393.00 156.00 C 392.90 142.19 393.01 128.37 393.45 114.58 C 389.44 128.35 385.62 142.18 381.76 156.00 L 367.10 156.00 C 362.97 142.20 359.34 128.26 355.13 114.49 C 356.06 128.31 355.87 142.16 355.87 156.00 L 342.13 156.00 C 342.13 137.00 342.14 118.00 342.13 99.01 Z" />
  <path d=" M 419.13 99.01 C 430.46 99.00 441.80 99.00 453.13 99.01 C 453.13 103.00 453.13 107.00 453.13 111.00 C 446.95 111.01 440.78 110.99 434.60 111.00 C 434.59 114.00 434.59 117.00 434.60 120.00 C 440.31 120.01 446.02 119.99 451.73 120.01 C 451.73 124.00 451.73 128.00 451.74 131.99 C 446.02 132.01 440.31 131.99 434.60 132.00 C 434.59 135.67 434.59 139.33 434.60 143.00 C 440.78 143.01 446.95 142.99 453.13 143.01 C 453.13 147.34 453.13 151.67 453.13 156.00 L 419.13 156.00 C 419.13 137.00 419.14 118.00 419.13 99.01 Z" />
  <path d=" M 463.13 99.01 C 470.09 99.02 477.04 98.96 484.00 99.01 C 489.84 99.35 496.23 100.18 500.71 104.32 C 505.16 108.34 506.00 115.10 504.49 120.64 C 503.17 125.27 499.49 128.62 495.50 131.02 C 501.09 139.33 506.54 147.73 512.19 156.00 L 494.66 156.00 C 490.57 149.06 486.57 142.07 482.60 135.06 C 481.26 135.03 479.93 135.00 478.60 134.98 C 478.59 141.99 478.60 148.99 478.60 156.00 L 463.13 156.00 C 463.13 137.00 463.14 118.00 463.13 99.01 M 478.60 111.00 C 478.59 115.33 478.60 119.67 478.60 124.01 C 481.93 124.04 486.11 124.40 488.35 121.35 C 490.05 118.76 490.26 114.54 487.58 112.51 C 485.00 110.57 481.62 111.02 478.60 111.00 Z" />
</svg>
